<?xml version="1.0" encoding="UTF-8"?>
<svg version="1.1" xmlns="http://www.w3.org/2000/svg" width="150" height="150">
<path d="M0 0 C49.5 0 99 0 150 0 C150 49.5 150 99 150 150 C100.5 150 51 150 0 150 C0 100.5 0 51 0 0 Z " fill="#FAFBFB" transform="translate(0,0)"/>
<path d="M0 0 C0.33 0 0.66 0 1 0 C1 22.11 1 44.22 1 67 C-19.46 67 -39.92 67 -61 67 C-61 66.34 -61 65.68 -61 65 C-60.2471875 64.87625 -59.494375 64.7525 -58.71875 64.625 C-50.07518063 62.94663702 -43.07089388 59.84487623 -35.3359375 55.7421875 C-32 54 -32 54 -29 53 C-29 52.34 -29 51.68 -29 51 C-27.29731435 49.83149024 -25.5935672 48.66447661 -23.8828125 47.5078125 C-21.87705168 45.90153931 -20.62241238 44.30979555 -19.1875 42.1875 C-18.465625 41.135625 -17.74375 40.08375 -17 39 C-16.34 39 -15.68 39 -15 39 C-15 38.34 -15 37.68 -15 37 C-14.34 37 -13.68 37 -13 37 C-12.773125 36.360625 -12.54625 35.72125 -12.3125 35.0625 C-11.20324547 32.47423944 -9.98531334 30.22956844 -8.5625 27.8125 C-5.19505133 21.87228081 -3.62668283 15.58204071 -2 9 C-1.34 9 -0.68 9 0 9 C0 6.03 0 3.06 0 0 Z " fill="#ECECEA" transform="translate(149,83)"/>
<path d="M0 0 C21.78 0 43.56 0 66 0 C66 0.33 66 0.66 66 1 C65.12859375 1.15855469 64.2571875 1.31710938 63.359375 1.48046875 C52.49635773 3.60839746 42.73626435 6.76521959 33.5234375 13.08203125 C32 14 32 14 30 14 C30 14.66 30 15.32 30 16 C27.5 17.5 27.5 17.5 25 19 C22.10589339 21.61175475 19.96569149 24.05195288 17.8125 27.3125 C17.214375 28.199375 16.61625 29.08625 16 30 C15.34 30 14.68 30 14 30 C13.7525 30.66 13.505 31.32 13.25 32 C11.94482249 35.13242603 10.45646726 38.11839936 8.90234375 41.1328125 C7.87997124 43.14664322 7.87997124 43.14664322 7 46 C6.34 46 5.68 46 5 46 C5.061875 46.639375 5.12375 47.27875 5.1875 47.9375 C4.83394731 53.71219388 2.56514201 58.86971597 0 64 C0 42.88 0 21.76 0 0 Z " fill="#EBEBE9" transform="translate(0,0)"/>
<path d="M0 0 C0.495 0.495 0.495 0.495 1 1 C0.79510922 6.02913736 0.14375899 11.09817576 -1 16 C-0.01 15.67 0.98 15.34 2 15 C2.66 15.33 3.32 15.66 4 16 C4.33 12.04 4.66 8.08 5 4 C6.32 4.66 7.64 5.32 9 6 C8.99399174 8.44235822 8.94671543 10.87193421 8.875 13.3125 C8.87886719 14.34793945 8.87886719 14.34793945 8.8828125 15.40429688 C8.8046875 17.42578125 8.8046875 17.42578125 8 21 C5.04296875 22.87890625 5.04296875 22.87890625 2 24 C1.484375 24.53625 0.96875 25.0725 0.4375 25.625 C-1.64178231 27.61387873 -3.14875842 27.86422659 -6 28 C-8.8125 26.5625 -8.8125 26.5625 -11 25 C-11.66 25.99 -12.32 26.98 -13 28 C-15.9375 28.4375 -15.9375 28.4375 -19 28 C-20.875 26.125 -20.875 26.125 -22 24 C-22 23.34 -22 22.68 -22 22 C-23.98 22 -25.96 22 -28 22 C-28 21.34 -28 20.68 -28 20 C-27.34 20 -26.68 20 -26 20 C-26.33 15.71 -26.66 11.42 -27 7 C-28.98 6.34 -30.96 5.68 -33 5 C-33 4.67 -33 4.34 -33 4 C-29.54330418 3.68575493 -27.60098323 3.62043164 -24.625 5.5 C-22.26386802 9.13251074 -22.7145622 11.71843297 -23 16 C-18.51814855 13.93861432 -14.91377706 11.52718038 -11.125 8.375 C-10.15820312 7.57835938 -9.19140625 6.78171875 -8.1953125 5.9609375 C-7.47085938 5.31382813 -6.74640625 4.66671875 -6 4 C-6 3.67 -6 3.34 -6 3 C-6.66 3 -7.32 3 -8 3 C-8.33 3.66 -8.66 4.32 -9 5 C-9 4.34 -9 3.68 -9 3 C-9.5775 3.33 -10.155 3.66 -10.75 4 C-13 5 -13 5 -17 5 C-17.66 6.32 -18.32 7.64 -19 9 C-19.84454356 5.62182575 -20.10844919 3.32534757 -19 0 C-18.34 0 -17.68 0 -17 0 C-17 0.99 -17 1.98 -17 3 C-16.38511719 2.79503906 -15.77023438 2.59007812 -15.13671875 2.37890625 C-4.47058824 -1.17647059 -4.47058824 -1.17647059 0 0 Z " fill="#7F8999" transform="translate(52,58)"/>
<path d="M0 0 C3.44655739 -0.3133234 5.33628423 -0.48356435 8.1875 1.59375 C10.60016414 4.79676963 10.40848829 6.78779278 10.25 10.75 C10.21390625 11.92046875 10.1778125 13.0909375 10.140625 14.296875 C10.07101563 15.63492188 10.07101563 15.63492188 10 17 C11.32 16.67 12.64 16.34 14 16 C13.67 15.67 13.34 15.34 13 15 C12.625 12.625 12.625 12.625 13 10 C16.30899391 7.37226954 19.9861764 6.21348155 24 5 C23.34 3.35 22.68 1.7 22 0 C23.65 0.66 25.3 1.32 27 2 C27 6.95 27 11.9 27 17 C25.68 16.67 24.36 16.34 23 16 C20.86655232 17.3916876 20.86655232 17.3916876 19 19 C18.34 19 17.68 19 17 19 C17 20.98 17 22.96 17 25 C17.66 25 18.32 25 19 25 C19.042721 26.66611905 19.04063832 28.33382885 19 30 C18 31 18 31 14.9375 31.0625 C13.968125 31.041875 12.99875 31.02125 12 31 C11.67 29.35 11.34 27.7 11 26 C10.01 26 9.02 26 8 26 C8 27.65 8 29.3 8 31 C7.34 31 6.68 31 6 31 C6 29.35 6 27.7 6 26 C4.68 26 3.36 26 2 26 C2 27.65 2 29.3 2 31 C1.34 31 0.68 31 0 31 C0 29.35 0 27.7 0 26 C-0.66 26 -1.32 26 -2 26 C-2 25.34 -2 24.68 -2 24 C-1.34 24 -0.68 24 0 24 C0 23.34 0 22.68 0 22 C1.31200404 20.64567325 2.64631404 19.31266518 4 18 C5.50156874 14.99686252 5.09281204 12.20932478 5.0625 8.875 C5.05347656 7.59367187 5.04445313 6.31234375 5.03515625 4.9921875 C5.02355469 4.00476563 5.01195313 3.01734375 5 2 C3.35 1.67 1.7 1.34 0 1 C0 0.67 0 0.34 0 0 Z " fill="#F6F9FC" transform="translate(109,62)"/>
<path d="M0 0 C0.33 1.65 0.66 3.3 1 5 C1.66 4.67 2.32 4.34 3 4 C3.65555119 1.47266765 3.65555119 1.47266765 4 -1 C7 0 7 0 8 2 C8.2322646 4.71262116 8.41936235 7.40773126 8.5625 10.125 C8.60568359 10.87910156 8.64886719 11.63320312 8.69335938 12.41015625 C8.7994832 14.27321888 8.90025001 16.13658524 9 18 C5.72815192 17.91915297 2.45817221 17.80631126 -0.8125 17.6875 C-1.74126953 17.66494141 -2.67003906 17.64238281 -3.62695312 17.61914062 C-4.51962891 17.58369141 -5.41230469 17.54824219 -6.33203125 17.51171875 C-7.56530151 17.47244263 -7.56530151 17.47244263 -8.82348633 17.43237305 C-11.50514244 16.89965146 -12.38645872 16.18497133 -14 14 C-14.98013627 9.65939653 -15.49500644 7.26501646 -13.875 3.125 C-9.70532324 -1.60063367 -5.90701628 -1.15823849 0 0 Z " fill="#D3DDEA" transform="translate(99,62)"/>
<path d="M0 0 C2.60478883 -0.0809313 5.20706653 -0.14045434 7.8125 -0.1875 C8.55048828 -0.21263672 9.28847656 -0.23777344 10.04882812 -0.26367188 C15.37740166 -0.33600545 15.37740166 -0.33600545 17.96875 1.0625 C19.55818337 4.04870815 19.53364187 6.83339267 19.6875 10.1875 C19.78611328 12.09595703 19.78611328 12.09595703 19.88671875 14.04296875 C19.92410156 15.01878906 19.96148437 15.99460937 20 17 C18.02 17.33 16.04 17.66 14 18 C14 17.34 14 16.68 14 16 C13.01 15.67 12.02 15.34 11 15 C10.67 15.66 10.34 16.32 10 17 C8.68 17 7.36 17 6 17 C6 12.05 6 7.1 6 2 C3.03 1.505 3.03 1.505 0 1 C0 0.67 0 0.34 0 0 Z " fill="#EBF1F7" transform="translate(63,62)"/>
<path d="M0 0 C2.475 0.99 2.475 0.99 5 2 C5 6.95 5 11.9 5 17 C3.68 16.67 2.36 16.34 1 16 C0.67 16.33 0.34 16.66 0 17 C-3.4375 17.1875 -3.4375 17.1875 -7 17 C-9 15 -9 15 -9.4375 12.5625 C-9 10 -9 10 -6.875 8.3125 C-3.96064345 6.98203288 -1.06541861 5.92675446 2 5 C1.34 3.35 0.68 1.7 0 0 Z " fill="#576893" transform="translate(131,62)"/>
<path d="M0 0 C2 3 2 3 2 6 C-2.95 8.475 -2.95 8.475 -8 11 C-8.372678 15.627322 -8.372678 15.627322 -7 18 C-8.98 18.33 -10.96 18.66 -13 19 C-13.13494246 16.3941111 -13.23402299 13.79517889 -13.3125 11.1875 C-13.35439453 10.44951172 -13.39628906 9.71152344 -13.43945312 8.95117188 C-13.48828125 6.79296875 -13.48828125 6.79296875 -13 3 C-8.84526677 -0.65875297 -5.26861879 -0.5182248 0 0 Z " fill="#F0F6F9" transform="translate(131,61)"/>
<path d="M0 0 C1.98 0.66 3.96 1.32 6 2 C6 2.66 6 3.32 6 4 C6.99 3.67 7.98 3.34 9 3 C9.33 4.32 9.66 5.64 10 7 C10.35964844 6.02933594 10.35964844 6.02933594 10.7265625 5.0390625 C12 3 12 3 14.0234375 2.4609375 C14.79945312 2.43257812 15.57546875 2.40421875 16.375 2.375 C19.78394601 2.22678496 22.02187463 1.69984325 25 0 C23.45397468 3.93697146 20.98915039 5.97880884 17.75 8.625 C16.35007812 9.78902344 16.35007812 9.78902344 14.921875 10.9765625 C11.98031626 13.01363125 9.43252681 14.05554736 6 15 C5.34 11.7 4.68 8.4 4 5 C1.69 4.34 -0.62 3.68 -3 3 C-2.01 2.01 -1.02 1.02 0 0 Z " fill="#F7FCFD" transform="translate(23,59)"/>
<path d="M0 0 C3 1 3 1 4 3 C4.2322646 5.71262116 4.41936235 8.40773126 4.5625 11.125 C4.60568359 11.87910156 4.64886719 12.63320312 4.69335938 13.41015625 C4.7994832 15.27321888 4.90025001 17.13658524 5 19 C2.36 18.67 -0.28 18.34 -3 18 C-3 14.04 -3 10.08 -3 6 C-2.34 5.67 -1.68 5.34 -1 5 C-0.34444881 2.47266765 -0.34444881 2.47266765 0 0 Z " fill="#E6EDF6" transform="translate(103,61)"/>
<path d="M0 0 C1.32 0.66 2.64 1.32 4 2 C3.99399174 4.44235822 3.94671543 6.87193421 3.875 9.3125 C3.87757812 10.00279297 3.88015625 10.69308594 3.8828125 11.40429688 C3.8046875 13.42578125 3.8046875 13.42578125 3 17 C0.0625 18.875 0.0625 18.875 -3 20 C-4.81554159 21.56102491 -4.81554159 21.56102491 -6 23 C-6.99 22.67 -7.98 22.34 -9 22 C-9 20.35 -9 18.7 -9 17 C-8.01 16.67 -7.02 16.34 -6 16 C-5.67 15.01 -5.34 14.02 -5 13 C-3.68 13 -2.36 13 -1 13 C-0.67 8.71 -0.34 4.42 0 0 Z " fill="#D8E0E7" transform="translate(57,62)"/>
<path d="M0 0 C1.32 0 2.64 0 4 0 C4.33 0.66 4.66 1.32 5 2 C5.66 1.34 6.32 0.68 7 0 C8.32 0 9.64 0 11 0 C11 0.99 11 1.98 11 3 C11.94875 2.814375 12.8975 2.62875 13.875 2.4375 C17 2 17 2 19 3 C19.042721 4.66611905 19.04063832 6.33382885 19 8 C18 9 18 9 14.9375 9.0625 C13.968125 9.041875 12.99875 9.02125 12 9 C11.67 7.35 11.34 5.7 11 4 C10.01 4 9.02 4 8 4 C8 5.65 8 7.3 8 9 C7.34 9 6.68 9 6 9 C6 7.35 6 5.7 6 4 C4.68 4 3.36 4 2 4 C2 5.65 2 7.3 2 9 C1.34 9 0.68 9 0 9 C0 7.35 0 5.7 0 4 C-0.66 4 -1.32 4 -2 4 C-2 3.34 -2 2.68 -2 2 C-1.34 2 -0.68 2 0 2 C0 1.34 0 0.68 0 0 Z " fill="#52648A" transform="translate(109,84)"/>
<path d="M0 0 C3.45669582 -0.31424507 5.39901677 -0.37956836 8.375 1.5 C10.73613198 5.13251074 10.2854378 7.71843297 10 12 C11.98 11.34 13.96 10.68 16 10 C15.690625 10.556875 15.38125 11.11375 15.0625 11.6875 C13.91459564 14.18588008 13.28067722 16.26339708 13 19 C13.66 19.99 14.32 20.98 15 22 C16.98 21.67 18.96 21.34 21 21 C20.67 21.99 20.34 22.98 20 24 C17.1875 24.25 17.1875 24.25 14 24 C12.125 22.125 12.125 22.125 11 20 C11 19.34 11 18.68 11 18 C9.02 18 7.04 18 5 18 C5 17.34 5 16.68 5 16 C5.66 16 6.32 16 7 16 C6.67 11.71 6.34 7.42 6 3 C4.02 2.34 2.04 1.68 0 1 C0 0.67 0 0.34 0 0 Z " fill="#9DA6B4" transform="translate(19,62)"/>
<path d="M0 0 C0.66 0.33 1.32 0.66 2 1 C0.42910884 9.02078543 -1.27336618 17.01144087 -3 25 C-4.32 24.34 -5.64 23.68 -7 23 C-5.48526781 15.01323028 -2.83197448 7.59877122 0 0 Z " fill="#EBF4F9" transform="translate(50,59)"/>
<path d="M0 0 C5.28 0 10.56 0 16 0 C16 1.65 16 3.3 16 5 C15 6 15 6 11.9375 6.0625 C10.968125 6.041875 9.99875 6.02125 9 6 C8.67 4.68 8.34 3.36 8 2 C5.69 1.67 3.38 1.34 1 1 C1 1.99 1 2.98 1 4 C2.98 3.67 4.96 3.34 7 3 C6.67 3.99 6.34 4.98 6 6 C3.69 5.67 1.38 5.34 -1 5 C-0.67 3.35 -0.34 1.7 0 0 Z " fill="#5E6C8B" transform="translate(90,87)"/>
<path d="M0 0 C1 2 1 2 0.328125 4.27734375 C-0.02765625 5.15519531 -0.3834375 6.03304687 -0.75 6.9375 C-1.26820312 8.25041016 -1.26820312 8.25041016 -1.796875 9.58984375 C-2.97679074 11.95350613 -3.90922732 13.40024211 -6 15 C-6.99 15 -7.98 15 -9 15 C-8.74821616 10.71967476 -8.47140149 8.5458333 -5.625 5.25 C-4.75875 4.5075 -3.8925 3.765 -3 3 C-2.401875 2.401875 -1.80375 1.80375 -1.1875 1.1875 C-0.795625 0.795625 -0.40375 0.40375 0 0 Z " fill="#F0F6FC" transform="translate(46,64)"/>
<path d="M0 0 C0.94552734 0.16242187 0.94552734 0.16242187 1.91015625 0.328125 C3.91015625 3.328125 3.91015625 3.328125 3.91015625 6.328125 C1.94549212 7.39587724 -0.05839734 8.39365965 -2.08984375 9.328125 C-2.74984375 8.998125 -3.40984375 8.668125 -4.08984375 8.328125 C-3.42984375 7.338125 -2.76984375 6.348125 -2.08984375 5.328125 C-2.74984375 4.998125 -3.40984375 4.668125 -4.08984375 4.328125 C-4.08984375 4.988125 -4.08984375 5.648125 -4.08984375 6.328125 C-5.40984375 6.328125 -6.72984375 6.328125 -8.08984375 6.328125 C-6.98090958 0.14977748 -6.38922764 0.23191389 0 0 Z " fill="#E2EAF5" transform="translate(129.08984375,60.671875)"/>
<path d="M0 0 C0.66 0.33 1.32 0.66 2 1 C1.67 2.98 1.34 4.96 1 7 C2.65 7.33 4.3 7.66 6 8 C4.515 10.475 4.515 10.475 3 13 C0.625 12.6875 0.625 12.6875 -2 12 C-4 9 -4 9 -3.8125 6.5625 C-2.95218569 3.84920103 -1.83477535 2.15386671 0 0 Z " fill="#EDF4F7" transform="translate(35,72)"/>
<path d="M0 0 C0 3 0 3 -1.3203125 4.60546875 C-6.23857868 8.91693586 -6.23857868 8.91693586 -10.4375 9.375 C-11.283125 9.25125 -12.12875 9.1275 -13 9 C-13 7.02 -13 5.04 -13 3 C-11.96939453 2.92652344 -11.96939453 2.92652344 -10.91796875 2.8515625 C-9.56638672 2.73941406 -9.56638672 2.73941406 -8.1875 2.625 C-7.29417969 2.55539063 -6.40085937 2.48578125 -5.48046875 2.4140625 C-2.75601501 2.13354964 -2.75601501 2.13354964 0 0 Z " fill="#B2BEC7" transform="translate(47,59)"/>
<path d="M0 0 C5.43516874 -0.36234458 5.43516874 -0.36234458 7.65625 1.0625 C9.68686507 3.99036358 9.52612941 6.66962122 9.6875 10.1875 C9.78611328 12.09595703 9.78611328 12.09595703 9.88671875 14.04296875 C9.92410156 15.01878906 9.96148437 15.99460937 10 17 C8.68 17 7.36 17 6 17 C6 12.05 6 7.1 6 2 C3.03 1.505 3.03 1.505 0 1 C0 0.67 0 0.34 0 0 Z " fill="#384D83" transform="translate(73,62)"/>
<path d="M0 0 C3.44655739 -0.3133234 5.33628423 -0.48356435 8.1875 1.59375 C10.60016414 4.79676963 10.40848829 6.78779278 10.25 10.75 C10.21390625 11.92046875 10.1778125 13.0909375 10.140625 14.296875 C10.07101563 15.63492188 10.07101563 15.63492188 10 17 C9.01 17 8.02 17 7 17 C6.67 12.38 6.34 7.76 6 3 C4.02 2.34 2.04 1.68 0 1 C0 0.67 0 0.34 0 0 Z " fill="#4C5D8B" transform="translate(109,62)"/>
<path d="M0 0 C2.8125 -0.25 2.8125 -0.25 6 0 C9.33747507 3.21153262 9.46301946 6.26038926 9.6875 10.75 C9.75324219 11.92046875 9.81898437 13.0909375 9.88671875 14.296875 C9.92410156 15.18890625 9.96148437 16.0809375 10 17 C8.68 17 7.36 17 6 17 C6 12.05 6 7.1 6 2 C3.03 1.505 3.03 1.505 0 1 C0 0.67 0 0.34 0 0 Z " fill="#36487B" transform="translate(63,62)"/>
<path d="M0 0 C1.46643674 4.24494845 0.19023309 6.7625167 -1.40625 10.78125 C-2.0812282 13.30353697 -1.97128024 14.59291419 -1 17 C-0.34 17.33 0.32 17.66 1 18 C1 16.02 1 14.04 1 12 C1.99 12 2.98 12 4 12 C3.34 13.98 2.68 15.96 2 18 C2.66 18.33 3.32 18.66 4 19 C2.3125 19.6875 2.3125 19.6875 0 20 C-2.75 18.75 -2.75 18.75 -5 17 C-5 13.26394638 -3.78082851 10.26381359 -2.5 6.8125 C-2.26152344 6.15830078 -2.02304687 5.50410156 -1.77734375 4.83007812 C-1.18917119 3.2184853 -0.59514956 1.60902933 0 0 Z " fill="#717986" transform="translate(46,66)"/>
<path d="M0 0 C1.98 0.99 1.98 0.99 4 2 C3.67 6.95 3.34 11.9 3 17 C2.01 17 1.02 17 0 17 C0 11.39 0 5.78 0 0 Z " fill="#394E85" transform="translate(57,62)"/>
<path d="M0 0 C0.66 0 1.32 0 2 0 C3.53266582 3.06533164 3.10276471 6.26754272 3.0625 9.625 C3.05798828 10.33140625 3.05347656 11.0378125 3.04882812 11.765625 C3.03703875 13.51045275 3.01910324 15.255237 3 17 C1.68 16.67 0.36 16.34 -1 16 C-0.67 10.72 -0.34 5.44 0 0 Z " fill="#354983" transform="translate(14,62)"/>
<path d="M0 0 C0.66 0 1.32 0 2 0 C3.53266582 3.06533164 3.10276471 6.26754272 3.0625 9.625 C3.05798828 10.33140625 3.05347656 11.0378125 3.04882812 11.765625 C3.03703875 13.51045275 3.01910324 15.255237 3 17 C2.01 17 1.02 17 0 17 C0 11.39 0 5.78 0 0 Z " fill="#354682" transform="translate(104,62)"/>
<path d="M0 0 C0.33 0.66 0.66 1.32 1 2 C0.01 2.598125 -0.98 3.19625 -2 3.8125 C-2.99 4.534375 -3.98 5.25625 -5 6 C-5 6.99 -5 7.98 -5 9 C-3.35 9.33 -1.7 9.66 0 10 C-0.33 10.66 -0.66 11.32 -1 12 C-3.875 12.125 -3.875 12.125 -7 12 C-9 10 -9 10 -9.3125 7.5625 C-9 5 -9 5 -7.875 3.3125 C-5.40494197 1.58345938 -2.88124528 0.83235975 0 0 Z " fill="#36487A" transform="translate(95,67)"/>
<path d="M0 0 C1.32 0.33 2.64 0.66 4 1 C4 5.95 4 10.9 4 16 C3.01 16 2.02 16 1 16 C0.67 10.72 0.34 5.44 0 0 Z " fill="#314A7F" transform="translate(96,63)"/>
<path d="M0 0 C0.33 0 0.66 0 1 0 C1.04898438 1.12019531 1.09796875 2.24039063 1.1484375 3.39453125 C1.22347856 4.86721203 1.29902582 6.33986707 1.375 7.8125 C1.4059375 8.55048828 1.436875 9.28847656 1.46875 10.04882812 C1.67346148 13.81893115 1.86433827 15.79650741 4 19 C1.6875 20.5625 1.6875 20.5625 -1 22 C-1.99 21.67 -2.98 21.34 -4 21 C-3.34 21 -2.68 21 -2 21 C-2 20.34 -2 19.68 -2 19 C-2.66 18.67 -3.32 18.34 -4 18 C-3.51917969 17.31550781 -3.03835937 16.63101563 -2.54296875 15.92578125 C-0.74297878 12.51263572 -0.50621595 10.02307577 -0.3125 6.1875 C-0.21388672 4.44533203 -0.21388672 4.44533203 -0.11328125 2.66796875 C-0.05720703 1.34732422 -0.05720703 1.34732422 0 0 Z " fill="#D8E2F1" transform="translate(115,65)"/>
<path d="M0 0 C0.66 0.33 1.32 0.66 2 1 C1.67 2.32 1.34 3.64 1 5 C1.99 5.66 2.98 6.32 4 7 C3.21625 7.226875 2.4325 7.45375 1.625 7.6875 C-1.21875 8.78125 -1.21875 8.78125 -2.3125 11.625 C-2.539375 12.40875 -2.76625 13.1925 -3 14 C-3.33 14 -3.66 14 -4 14 C-5.34681093 6.7761959 -5.34681093 6.7761959 -3.6875 3.0625 C-2 1 -2 1 0 0 Z " fill="#B0BBCB" transform="translate(89,62)"/>
<path d="M0 0 C0 2.64 0 5.28 0 8 C-1.98 8.33 -3.96 8.66 -6 9 C-6.33 7.68 -6.66 6.36 -7 5 C-1.125 0 -1.125 0 0 0 Z " fill="#EFF6FC" transform="translate(133,68)"/>
<path d="M0 0 C2.00720923 0.28674418 4.0085944 0.61866701 6 1 C6.042721 2.66611905 6.04063832 4.33382885 6 6 C5.67 6.33 5.34 6.66 5 7 C2.66055264 6.71269945 0.3260857 6.38063221 -2 6 C-1.125 1.125 -1.125 1.125 0 0 Z " fill="#546389" transform="translate(131,86)"/>
<path d="M0 0 C5.625 -0.25 5.625 -0.25 9 2 C9.22137393 4.62697064 9.28162025 7.00893964 9.1875 9.625 C9.17396484 10.33140625 9.16042969 11.0378125 9.14648438 11.765625 C9.1111104 13.51074128 9.05730221 15.25546608 9 17 C8.01 16.67 7.02 16.34 6 16 C6 11.71 6 7.42 6 3 C4.02 2.34 2.04 1.68 0 1 C0 0.67 0 0.34 0 0 Z " fill="#1F3673" transform="translate(19,62)"/>
<path d="M0 0 C0.66 0 1.32 0 2 0 C2 0.99 2 1.98 2 3 C6.95 1.515 6.95 1.515 12 0 C12.33 0.99 12.66 1.98 13 3 C12.34 3 11.68 3 11 3 C10.67 3.66 10.34 4.32 10 5 C10 4.34 10 3.68 10 3 C9.13375 3.495 9.13375 3.495 8.25 4 C6 5 6 5 2 5 C1.34 6.32 0.68 7.64 0 9 C-0.84454356 5.62182575 -1.10844919 3.32534757 0 0 Z " fill="#8994A2" transform="translate(33,58)"/>
<path d="M0 0 C0.66 0.33 1.32 0.66 2 1 C2 3.64 2 6.28 2 9 C0.02 8.34 -1.96 7.68 -4 7 C-3.6875 4.625 -3.6875 4.625 -3 2 C-2.01 1.34 -1.02 0.68 0 0 Z " fill="#E4EBF2" transform="translate(95,70)"/>
<path d="M0 0 C2.475 0.99 2.475 0.99 5 2 C5 6.95 5 11.9 5 17 C4.34 17 3.68 17 3 17 C2.92652344 15.53626953 2.92652344 15.53626953 2.8515625 14.04296875 C2.77679688 12.77066406 2.70203125 11.49835938 2.625 10.1875 C2.55539063 8.92292969 2.48578125 7.65835938 2.4140625 6.35546875 C2.23897061 2.87244766 2.23897061 2.87244766 0 0 Z " fill="#273A75" transform="translate(131,62)"/>
<path d="M0 0 C0.66 0 1.32 0 2 0 C1.67 2.64 1.34 5.28 1 8 C0.34 7.67 -0.32 7.34 -1 7 C-1.66 7.66 -2.32 8.32 -3 9 C-3 8.34 -3 7.68 -3 7 C-3.99 6.67 -4.98 6.34 -6 6 C-6 5.01 -6 4.02 -6 3 C-3.03 3.495 -3.03 3.495 0 4 C0 2.68 0 1.36 0 0 Z " fill="#ADB8CC" transform="translate(88,86)"/>
<path d="M0 0 C2.05078125 0.03255208 4.1015625 0.06510417 6.15234375 0.09765625 C6.15234375 0.75765625 6.15234375 1.41765625 6.15234375 2.09765625 C4.50234375 2.42765625 2.85234375 2.75765625 1.15234375 3.09765625 C0.82234375 4.08765625 0.49234375 5.07765625 0.15234375 6.09765625 C-1.16765625 6.09765625 -2.48765625 6.09765625 -3.84765625 6.09765625 C-2.77957394 0.14691194 -2.77957394 0.14691194 0 0 Z " fill="#95A1B2" transform="translate(124.84765625,60.90234375)"/>
<path d="M0 0 C0.66 0.99 1.32 1.98 2 3 C1.01 4.485 1.01 4.485 0 6 C-0.38499891 7.65549531 -0.72793135 9.3222433 -1 11 C0.65 10.34 2.3 9.68 4 9 C4 9.99 4 10.98 4 12 C2.02 12 0.04 12 -2 12 C-3.07318928 8.78043217 -2.870689 8.09578311 -2 5 C-2 4.01 -2 3.02 -2 2 C-1.34 1.34 -0.68 0.68 0 0 Z " fill="#84919B" transform="translate(38,68)"/>
<path d="M0 0 C1.98 0.66 3.96 1.32 6 2 C6 2.66 6 3.32 6 4 C6.99 3.67 7.98 3.34 9 3 C8.67 4.32 8.34 5.64 8 7 C7.01 7 6.02 7 5 7 C4.54625 6.525625 4.0925 6.05125 3.625 5.5625 C1.53633317 3.55416651 -0.1783448 3.38130476 -3 3 C-2.01 2.01 -1.02 1.02 0 0 Z " fill="#E3EAF1" transform="translate(23,59)"/>
<path d="M0 0 C-5.625 5 -5.625 5 -9 5 C-9 3.35 -9 1.7 -9 0 C-2.25 -1.125 -2.25 -1.125 0 0 Z " fill="#ECF2F8" transform="translate(43,62)"/>
<path d="M0 0 C5.625 -0.25 5.625 -0.25 9 2 C9.29296875 5.2578125 9.29296875 5.2578125 9.1875 9.125 C9.16042969 10.40632813 9.13335937 11.68765625 9.10546875 13.0078125 C9.07066406 13.99523437 9.03585938 14.98265625 9 16 C8.67 16 8.34 16 8 16 C7.95101562 15.15695313 7.90203125 14.31390625 7.8515625 13.4453125 C7.77679688 12.34960938 7.70203125 11.25390625 7.625 10.125 C7.52058594 8.48917969 7.52058594 8.48917969 7.4140625 6.8203125 C7.26746509 3.86953526 7.26746509 3.86953526 5 2 C2.42938689 1.35232207 2.42938689 1.35232207 0 1 C0 0.67 0 0.34 0 0 Z " fill="#283A6E" transform="translate(109,62)"/>
<path d="M0 0 C0.625 1.875 0.625 1.875 1 4 C0.34 4.66 -0.32 5.32 -1 6 C-1.66 6 -2.32 6 -3 6 C-5.02456848 7.29572383 -7.02678947 8.6273318 -9 10 C-7.61811547 6.78956118 -6.07578097 4.95063635 -3.375 2.75 C-2.74335937 2.22921875 -2.11171875 1.7084375 -1.4609375 1.171875 C-0.73777344 0.59179688 -0.73777344 0.59179688 0 0 Z " fill="#576479" transform="translate(48,60)"/>
<path d="M0 0 C0.99 0 1.98 0 3 0 C3.33 1.98 3.66 3.96 4 6 C3.01 6.33 2.02 6.66 1 7 C0.34 6.67 -0.32 6.34 -1 6 C-1.042721 4.33388095 -1.04063832 2.66617115 -1 1 C-0.67 0.67 -0.34 0.34 0 0 Z " fill="#AEB8C1" transform="translate(49,78)"/>
<path d="M0 0 C1.98 0.495 1.98 0.495 4 1 C3.67 2.98 3.34 4.96 3 7 C1.68 6.34 0.36 5.68 -1 5 C-0.67 3.35 -0.34 1.7 0 0 Z " fill="#E6EDF4" transform="translate(44,77)"/>
<path d="M0 0 C1.43410153 3.78819273 0.51009497 6.06521279 -0.9375 9.75 C-1.31777344 10.73484375 -1.69804688 11.7196875 -2.08984375 12.734375 C-2.39019531 13.48203125 -2.69054688 14.2296875 -3 15 C-3.33 15 -3.66 15 -4 15 C-3.43179252 9.54520815 -2.05362055 5.08940744 0 0 Z " fill="#606B79" transform="translate(46,66)"/>
<path d="M0 0 C0.66 0.33 1.32 0.66 2 1 C1.67 2.32 1.34 3.64 1 5 C0.34 5 -0.32 5 -1 5 C-1.33 6.65 -1.66 8.3 -2 10 C-2.66 9.67 -3.32 9.34 -4 9 C-3.46930939 5.17902761 -2.50298434 2.93828597 0 0 Z " fill="#E4EEF2" transform="translate(35,72)"/>
<path d="M0 0 C-1.65 1.98 -3.3 3.96 -5 6 C-5.66 5.34 -6.32 4.68 -7 4 C-6.8125 1.9375 -6.8125 1.9375 -6 0 C-3 -1 -3 -1 0 0 Z " fill="#2F427D" transform="translate(130,70)"/>
<path d="M0 0 C1.98 0.66 3.96 1.32 6 2 C4.35 3.65 2.7 5.3 1 7 C0.34 5.02 -0.32 3.04 -1 1 C-0.67 0.67 -0.34 0.34 0 0 Z " fill="#EAF2F5" transform="translate(32,66)"/>
<path d="M0 0 C2.64 0 5.28 0 8 0 C7.01 0.33 6.02 0.66 5 1 C5 1.66 5 2.32 5 3 C4.01 3.495 4.01 3.495 3 4 C1.86649466 6.01669827 1.86649466 6.01669827 1 8 C0.67 5.36 0.34 2.72 0 0 Z " fill="#D2DCEA" transform="translate(106,63)"/>
<path d="M0 0 C4.81449408 0.48144941 7.60171741 0.8008587 12 3 C8.37 3 4.74 3 1 3 C0.67 2.01 0.34 1.02 0 0 Z " fill="#F0F0EF" transform="translate(55,147)"/>
<path d="M0 0 C0.33 0.99 0.66 1.98 1 3 C1.66 3.33 2.32 3.66 3 4 C1.35 4.66 -0.3 5.32 -2 6 C-2.66 5.34 -3.32 4.68 -4 4 C-3.01 3.67 -2.02 3.34 -1 3 C-2.65 2.67 -4.3 2.34 -6 2 C-6 1.67 -6 1.34 -6 1 C-4.02 0.67 -2.04 0.34 0 0 Z " fill="#CFDFF2" transform="translate(128,89)"/>
<path d="M0 0 C1 2 1 2 0.0625 5.125 C-0.288125 6.07375 -0.63875 7.0225 -1 8 C-3.475 7.01 -3.475 7.01 -6 6 C-4 4 -2 2 0 0 Z " fill="#E5EBF5" transform="translate(46,64)"/>
<path d="M0 0 C2.31 0.33 4.62 0.66 7 1 C7.33 1.99 7.66 2.98 8 4 C5.36 3.67 2.72 3.34 0 3 C0 2.01 0 1.02 0 0 Z " fill="#D3E0F4" transform="translate(91,88)"/>
<path d="M0 0 C0.66 0.33 1.32 0.66 2 1 C2 1.66 2 2.32 2 3 C1.34 3 0.68 3 0 3 C0 4.98 0 6.96 0 9 C-0.33 9 -0.66 9 -1 9 C-1 7.35 -1 5.7 -1 4 C-2.98 4 -4.96 4 -7 4 C-7 3.67 -7 3.34 -7 3 C-5.02 3 -3.04 3 -1 3 C-0.67 2.01 -0.34 1.02 0 0 Z " fill="#B3C1D8" transform="translate(107,83)"/>
<path d="M0 0 C5.625 -0.25 5.625 -0.25 9 2 C8.67 3.65 8.34 5.3 8 7 C7.79375 6.38125 7.5875 5.7625 7.375 5.125 C5.45224112 2.15346355 3.33405473 1.86975341 0 1 C0 0.67 0 0.34 0 0 Z " fill="#354472" transform="translate(19,62)"/>
</svg>
